<svg width="310" height="19" viewBox="0 0 310 19" fill="none" xmlns="http://www.w3.org/2000/svg">
<rect y="8.73474" width="140" height="1" fill="#D9D9D9"/>
<path d="M151.974 14.4052C151.236 14.4052 150.588 14.2294 150.03 13.8779C149.476 13.5263 149.043 13.0345 148.73 12.4024C148.422 11.7703 148.267 11.0316 148.267 10.1864C148.267 9.33417 148.422 8.59021 148.73 7.95456C149.043 7.3189 149.476 6.82529 150.03 6.47373C150.588 6.12217 151.236 5.94639 151.974 5.94639C152.713 5.94639 153.359 6.12217 153.913 6.47373C154.471 6.82529 154.904 7.3189 155.213 7.95456C155.526 8.59021 155.682 9.33417 155.682 10.1864C155.682 11.0316 155.526 11.7703 155.213 12.4024C154.904 13.0345 154.471 13.5263 153.913 13.8779C153.359 14.2294 152.713 14.4052 151.974 14.4052ZM151.974 13.2759C152.536 13.2759 152.997 13.1321 153.359 12.8445C153.722 12.5568 153.99 12.1786 154.164 11.7099C154.338 11.2411 154.425 10.7333 154.425 10.1864C154.425 9.63957 154.338 9.12998 154.164 8.65768C153.99 8.18538 153.722 7.80363 153.359 7.51244C152.997 7.22125 152.536 7.07565 151.974 7.07565C151.413 7.07565 150.952 7.22125 150.589 7.51244C150.227 7.80363 149.959 8.18538 149.785 8.65768C149.611 9.12998 149.524 9.63957 149.524 10.1864C149.524 10.7333 149.611 11.2411 149.785 11.7099C149.959 12.1786 150.227 12.5568 150.589 12.8445C150.952 13.1321 151.413 13.2759 151.974 13.2759ZM157.601 14.2347V6.05292H158.815V7.28872H158.9C159.05 6.88389 159.32 6.55541 159.71 6.30328C160.101 6.05115 160.541 5.92508 161.031 5.92508C161.123 5.92508 161.239 5.92686 161.377 5.93041C161.516 5.93396 161.621 5.93929 161.692 5.94639V7.2248C161.649 7.21414 161.551 7.19816 161.399 7.17686C161.25 7.152 161.092 7.13957 160.925 7.13957C160.527 7.13957 160.172 7.22302 159.859 7.38993C159.55 7.55328 159.305 7.78055 159.124 8.07174C158.947 8.35939 158.858 8.68787 158.858 9.05718V14.2347H157.601Z" fill="#C4C4C4"/>
<rect x="170" y="8.73474" width="140" height="1" fill="#D9D9D9"/>
</svg>
