<svg width="146" height="108" viewBox="0 0 146 108" fill="none" xmlns="http://www.w3.org/2000/svg">
<path d="M32.044 89.364C32.044 89.532 32.032 89.712 32.008 89.904C31.984 90.072 31.948 90.252 31.9 90.444C31.732 91.5 31.588 92.58 31.468 93.684C31.372 94.764 31.228 95.832 31.036 96.888C31.036 97.008 30.988 97.116 30.892 97.212C30.724 97.356 30.52 97.428 30.28 97.428C29.104 97.428 27.928 97.416 26.752 97.392C25.576 97.368 24.388 97.356 23.188 97.356C21.724 97.356 20.26 97.356 18.796 97.356C17.356 97.356 15.904 97.38 14.44 97.428C13.624 97.452 12.82 97.476 12.028 97.5C11.236 97.548 10.432 97.572 9.616 97.572C9.328 97.572 9.184 97.404 9.184 97.068C9.184 96.732 9.352 96.564 9.688 96.564C9.928 96.564 10.156 96.576 10.372 96.6C10.612 96.6 10.84 96.6 11.056 96.6C11.392 96.6 11.728 96.54 12.064 96.42C12.424 96.276 12.604 96.012 12.604 95.628V74.352C12.604 73.872 12.592 73.476 12.568 73.164C12.544 72.828 12.424 72.576 12.208 72.408C12.016 72.24 11.644 72.156 11.092 72.156C10.852 72.156 10.624 72.168 10.408 72.192C10.192 72.216 9.964 72.228 9.724 72.228C9.532 72.228 9.412 72.18 9.364 72.084C9.316 71.964 9.292 71.82 9.292 71.652C9.292 71.508 9.304 71.388 9.328 71.292C9.376 71.172 9.484 71.112 9.652 71.112C10.444 71.112 11.224 71.124 11.992 71.148C12.784 71.172 13.576 71.184 14.368 71.184C15.28 71.184 16.204 71.172 17.14 71.148C18.076 71.124 19 71.112 19.912 71.112C20.08 71.112 20.176 71.172 20.2 71.292C20.248 71.388 20.272 71.496 20.272 71.616C20.272 71.712 20.248 71.832 20.2 71.976C20.176 72.096 20.08 72.156 19.912 72.156C19.6 72.156 19.288 72.156 18.976 72.156C18.688 72.132 18.388 72.12 18.076 72.12C17.692 72.12 17.308 72.168 16.924 72.264C16.54 72.36 16.348 72.66 16.348 73.164C16.348 74.004 16.336 74.844 16.312 75.684C16.312 76.524 16.312 77.364 16.312 78.204V88.824C16.312 89.88 16.312 90.948 16.312 92.028C16.336 93.108 16.348 94.176 16.348 95.232C16.348 95.64 16.516 95.94 16.852 96.132C17.188 96.3 17.572 96.396 18.004 96.42C18.436 96.444 18.796 96.456 19.084 96.456C20.14 96.456 21.196 96.432 22.252 96.384C23.308 96.336 24.352 96.228 25.384 96.06C26.056 95.94 26.692 95.712 27.292 95.376C27.916 95.016 28.456 94.572 28.912 94.044C29.512 93.348 29.968 92.604 30.28 91.812C30.592 90.996 30.904 90.18 31.216 89.364C31.288 89.196 31.372 89.1 31.468 89.076C31.564 89.052 31.684 89.04 31.828 89.04C31.9 89.04 31.948 89.088 31.972 89.184C32.02 89.256 32.044 89.316 32.044 89.364ZM47.3052 84.864C47.2812 83.88 47.1972 82.944 47.0532 82.056C46.9092 81.144 46.5612 80.4 46.0092 79.824C45.4572 79.224 44.5572 78.924 43.3092 78.924C42.1812 78.924 41.2572 79.236 40.5372 79.86C39.8412 80.46 39.3012 81.228 38.9172 82.164C38.5332 83.076 38.2452 84.012 38.0532 84.972C38.6532 84.996 39.2412 85.02 39.8172 85.044C40.3932 85.044 40.9692 85.044 41.5452 85.044C42.5052 85.044 43.4652 85.032 44.4252 85.008C45.3852 84.96 46.3452 84.912 47.3052 84.864ZM51.4452 93.108C51.4452 93.228 51.4212 93.3 51.3732 93.324C51.3012 93.564 51.1212 93.852 50.8332 94.188C50.5692 94.524 50.2692 94.848 49.9332 95.16C49.5972 95.448 49.3212 95.664 49.1052 95.808C48.3132 96.36 47.4132 96.804 46.4052 97.14C45.4212 97.476 44.4372 97.644 43.4532 97.644C42.6372 97.644 41.7252 97.512 40.7172 97.248C39.7332 96.984 38.8932 96.624 38.1972 96.168C36.8532 95.28 35.8692 94.116 35.2452 92.676C34.6212 91.236 34.3092 89.736 34.3092 88.176C34.3092 86.4 34.6572 84.756 35.3532 83.244C36.0492 81.732 37.1652 80.508 38.7012 79.572C39.3972 79.164 40.1772 78.828 41.0412 78.564C41.9052 78.276 42.7332 78.132 43.5252 78.132C44.9412 78.132 46.1892 78.42 47.2692 78.996C48.3492 79.572 49.1892 80.388 49.7892 81.444C50.4132 82.476 50.7252 83.712 50.7252 85.152C50.7252 85.56 50.6292 85.824 50.4372 85.944C50.2692 86.064 50.0052 86.124 49.6452 86.124C49.1652 86.124 48.6852 86.112 48.2052 86.088C47.7252 86.064 47.2452 86.04 46.7652 86.016C46.0932 85.968 45.4212 85.944 44.7492 85.944C44.1012 85.944 43.4412 85.944 42.7692 85.944C41.9532 85.944 41.1372 85.944 40.3212 85.944C39.5052 85.944 38.6892 85.968 37.8732 86.016C37.8492 86.4 37.8252 86.772 37.8012 87.132C37.7772 87.492 37.7652 87.864 37.7652 88.248C37.7652 89.136 37.8732 90.06 38.0892 91.02C38.3052 91.956 38.6532 92.832 39.1332 93.648C39.6132 94.44 40.2252 95.088 40.9692 95.592C41.7132 96.072 42.6132 96.312 43.6692 96.312C44.7492 96.312 45.7812 96.144 46.7652 95.808C47.7492 95.472 48.6492 94.932 49.4652 94.188C49.6812 93.972 49.8732 93.744 50.0412 93.504C50.2332 93.24 50.4372 93.012 50.6532 92.82C50.7732 92.7 50.9052 92.64 51.0492 92.64C51.1692 92.64 51.2652 92.688 51.3372 92.784C51.4092 92.88 51.4452 92.988 51.4452 93.108ZM73.8704 76.26C73.8704 76.476 73.7864 76.656 73.6184 76.8C73.4744 76.92 73.3064 76.98 73.1144 76.98C72.8744 76.98 72.7184 76.932 72.6464 76.836C72.5744 76.716 72.5024 76.56 72.4304 76.368C72.0224 75.072 71.3984 74.112 70.5584 73.488C69.7184 72.864 68.6024 72.552 67.2104 72.552H60.6584V83.388C61.7624 83.364 62.8664 83.352 63.9704 83.352C65.0744 83.328 66.1784 83.268 67.2824 83.172C68.0024 83.124 68.7104 83.04 69.4064 82.92C70.1024 82.8 70.7984 82.68 71.4944 82.56H71.5664C71.6144 82.56 71.6624 82.584 71.7104 82.632C71.7824 82.656 71.8184 82.692 71.8184 82.74C71.8184 82.908 71.7344 83.208 71.5664 83.64C71.3984 84.048 71.2784 84.336 71.2064 84.504C71.0864 84.792 70.9064 84.936 70.6664 84.936C70.4984 84.936 70.3184 84.936 70.1264 84.936C69.9584 84.912 69.7784 84.888 69.5864 84.864C68.7464 84.768 67.8944 84.72 67.0304 84.72C66.1904 84.696 65.3504 84.684 64.5104 84.684C64.1984 84.684 63.8264 84.684 63.3944 84.684C62.9624 84.684 62.5304 84.72 62.0984 84.792C61.6904 84.864 61.3424 85.02 61.0544 85.26C60.7904 85.476 60.6584 85.812 60.6584 86.268V94.404C60.6584 94.668 60.7184 94.92 60.8384 95.16C60.9824 95.376 61.1504 95.58 61.3424 95.772C61.7024 96.084 62.1464 96.276 62.6744 96.348C63.2264 96.396 63.7304 96.42 64.1864 96.42C64.5224 96.42 64.6904 96.6 64.6904 96.96C64.6904 97.344 64.4744 97.536 64.0424 97.536C63.6584 97.536 63.2624 97.524 62.8544 97.5C62.4464 97.452 62.0384 97.428 61.6304 97.428C61.1504 97.428 60.6584 97.428 60.1544 97.428C59.6744 97.404 59.1944 97.392 58.7144 97.392C57.8984 97.392 57.0824 97.428 56.2664 97.5C55.4744 97.548 54.6584 97.572 53.8184 97.572C53.7224 97.572 53.6144 97.536 53.4944 97.464C53.3984 97.368 53.3504 97.26 53.3504 97.14C53.3504 96.972 53.3624 96.84 53.3864 96.744C53.4344 96.624 53.5544 96.552 53.7464 96.528C53.9384 96.48 54.1424 96.456 54.3584 96.456C54.5744 96.432 54.7784 96.408 54.9704 96.384C55.8584 96.192 56.4104 95.844 56.6264 95.34C56.8664 94.812 56.9864 94.14 56.9864 93.324V74.064C56.9864 73.512 56.7944 73.152 56.4104 72.984C56.0264 72.816 55.5704 72.732 55.0424 72.732C54.5384 72.732 54.1064 72.732 53.7464 72.732C53.2904 72.732 53.0624 72.528 53.0624 72.12C53.0624 71.928 53.0864 71.76 53.1344 71.616C53.2064 71.472 53.3504 71.4 53.5664 71.4C53.9984 71.4 54.4304 71.412 54.8624 71.436C55.3184 71.46 55.7624 71.472 56.1944 71.472H62.5304C63.7304 71.472 64.9304 71.46 66.1304 71.436C67.3544 71.388 68.5664 71.364 69.7664 71.364C70.8704 71.364 71.9744 71.328 73.0784 71.256C73.1984 71.976 73.3544 72.816 73.5464 73.776C73.7624 74.736 73.8704 75.564 73.8704 76.26ZM89.867 81.48C89.867 81.72 89.771 81.948 89.579 82.164C89.411 82.356 89.195 82.452 88.931 82.452C88.571 82.452 88.307 82.332 88.139 82.092C87.995 81.852 87.863 81.576 87.743 81.264C87.647 80.952 87.491 80.676 87.275 80.436C87.059 80.196 86.699 80.076 86.195 80.076C86.099 80.076 86.003 80.076 85.907 80.076C85.835 80.076 85.751 80.088 85.655 80.112C85.247 80.184 84.803 80.436 84.323 80.868C83.843 81.3 83.375 81.816 82.919 82.416C82.487 82.992 82.127 83.568 81.839 84.144C81.551 84.72 81.395 85.2 81.371 85.584C81.347 85.968 81.335 86.352 81.335 86.736C81.335 87.096 81.335 87.456 81.335 87.816C81.335 89.112 81.335 90.408 81.335 91.704C81.359 93 81.371 94.284 81.371 95.556C81.371 95.916 81.515 96.18 81.803 96.348C82.115 96.492 82.427 96.564 82.739 96.564C82.979 96.564 83.219 96.552 83.459 96.528C83.699 96.504 83.939 96.492 84.179 96.492C84.299 96.492 84.383 96.552 84.431 96.672C84.479 96.768 84.503 96.864 84.503 96.96C84.503 97.344 84.311 97.536 83.927 97.536C83.207 97.536 82.487 97.524 81.767 97.5C81.047 97.452 80.327 97.428 79.607 97.428C78.863 97.428 78.107 97.452 77.339 97.5C76.595 97.548 75.839 97.572 75.071 97.572C74.975 97.572 74.903 97.5 74.855 97.356C74.831 97.212 74.819 97.092 74.819 96.996C74.819 96.756 74.915 96.624 75.107 96.6C75.371 96.552 75.647 96.54 75.935 96.564C76.223 96.588 76.487 96.6 76.727 96.6C77.087 96.6 77.375 96.528 77.591 96.384C77.831 96.216 77.963 95.94 77.987 95.556C78.035 94.788 78.059 94.008 78.059 93.216C78.083 92.424 78.095 91.632 78.095 90.84V87.348C78.071 86.316 78.059 85.296 78.059 84.288C78.083 83.256 78.047 82.236 77.951 81.228C77.927 80.748 77.795 80.412 77.555 80.22C77.315 80.004 76.955 79.896 76.475 79.896C76.283 79.896 76.079 79.92 75.863 79.968C75.671 79.992 75.467 80.004 75.251 80.004C75.059 80.004 74.963 79.86 74.963 79.572C74.963 79.404 75.047 79.284 75.215 79.212C75.455 79.14 75.707 79.092 75.971 79.068C76.235 79.02 76.487 78.984 76.727 78.96C77.375 78.84 78.023 78.72 78.671 78.6C79.319 78.48 79.967 78.336 80.615 78.168C80.831 78.24 80.987 78.372 81.083 78.564C81.131 78.66 81.167 78.924 81.191 79.356C81.215 79.788 81.227 80.292 81.227 80.868C81.227 81.42 81.227 81.948 81.227 82.452C81.227 82.932 81.227 83.268 81.227 83.46C81.755 82.62 82.355 81.78 83.027 80.94C83.699 80.1 84.467 79.404 85.331 78.852C86.195 78.3 87.167 78.024 88.247 78.024C88.823 78.024 89.195 78.204 89.363 78.564C89.531 78.924 89.639 79.344 89.687 79.824C89.735 80.088 89.771 80.364 89.795 80.652C89.843 80.94 89.867 81.216 89.867 81.48ZM101.615 96.96C101.615 97.08 101.579 97.2 101.507 97.32C101.435 97.416 101.339 97.464 101.219 97.464C100.547 97.464 99.8751 97.452 99.2031 97.428C98.5551 97.38 97.8831 97.356 97.1871 97.356H96.2151C95.4951 97.356 94.7751 97.38 94.0551 97.428C93.3591 97.452 92.6631 97.464 91.9671 97.464C91.8711 97.464 91.7991 97.404 91.7511 97.284C91.7271 97.164 91.7151 97.068 91.7151 96.996C91.7151 96.876 91.7271 96.792 91.7511 96.744C91.7751 96.672 91.8471 96.624 91.9671 96.6C92.0871 96.552 92.2191 96.54 92.3631 96.564C92.5311 96.564 92.6871 96.564 92.8311 96.564C92.9991 96.564 93.1551 96.576 93.2991 96.6C93.4431 96.6 93.5991 96.6 93.7671 96.6C94.1031 96.6 94.4031 96.528 94.6671 96.384C94.9551 96.216 95.0991 95.94 95.0991 95.556V81.156C95.0991 80.748 95.0271 80.436 94.8831 80.22C94.7391 79.98 94.4391 79.86 93.9831 79.86C93.6471 79.86 93.2991 79.884 92.9391 79.932C92.6031 79.956 92.2671 79.992 91.9311 80.04C91.7391 80.04 91.6431 79.932 91.6431 79.716C91.6431 79.476 91.7391 79.32 91.9311 79.248C92.2191 79.152 92.5191 79.092 92.8311 79.068C93.1671 79.02 93.4791 78.972 93.7671 78.924C94.4391 78.804 95.1111 78.672 95.7831 78.528C96.4551 78.384 97.1151 78.228 97.7631 78.06C97.8351 78.036 97.9311 78.024 98.0511 78.024C98.3151 78.024 98.4471 78.168 98.4471 78.456C98.4471 81.288 98.4351 84.132 98.4111 86.988C98.4111 89.844 98.4111 92.7 98.4111 95.556C98.4111 95.94 98.5791 96.216 98.9151 96.384C99.2751 96.528 99.6111 96.6 99.9231 96.6C100.163 96.6 100.403 96.588 100.643 96.564C100.907 96.54 101.159 96.528 101.399 96.528C101.495 96.528 101.555 96.588 101.579 96.708C101.603 96.828 101.615 96.912 101.615 96.96ZM98.6991 72.048C98.6991 72.648 98.4831 73.164 98.0511 73.596C97.6191 74.004 97.1031 74.208 96.5031 74.208C95.9031 74.208 95.3871 74.004 94.9551 73.596C94.5231 73.164 94.3071 72.648 94.3071 72.048C94.3071 71.448 94.5231 70.944 94.9551 70.536C95.3871 70.104 95.9031 69.888 96.5031 69.888C97.1031 69.888 97.6191 70.104 98.0511 70.536C98.4831 70.944 98.6991 71.448 98.6991 72.048ZM117.446 98.652C117.446 97.692 117.17 97.008 116.618 96.6C116.09 96.168 115.442 95.892 114.674 95.772C113.906 95.628 113.162 95.52 112.442 95.448L108.41 95.052C107.882 95.628 107.486 96.204 107.222 96.78C106.982 97.332 106.862 98.004 106.862 98.796C106.862 99.948 107.138 100.776 107.69 101.28C108.266 101.808 108.986 102.144 109.85 102.288C110.714 102.432 111.59 102.504 112.478 102.504C113.342 102.504 114.146 102.384 114.89 102.144C115.658 101.904 116.27 101.496 116.726 100.92C117.206 100.368 117.446 99.612 117.446 98.652ZM115.682 84.252C115.682 83.508 115.598 82.716 115.43 81.876C115.262 81.036 114.926 80.316 114.422 79.716C113.942 79.116 113.234 78.816 112.298 78.816C111.242 78.816 110.426 79.092 109.85 79.644C109.274 80.172 108.878 80.856 108.662 81.696C108.47 82.512 108.374 83.364 108.374 84.252C108.374 85.188 108.458 86.076 108.626 86.916C108.818 87.732 109.19 88.404 109.742 88.932C110.318 89.46 111.17 89.724 112.298 89.724C112.994 89.724 113.558 89.544 113.99 89.184C114.446 88.824 114.794 88.368 115.034 87.816C115.274 87.24 115.442 86.64 115.538 86.016C115.634 85.392 115.682 84.804 115.682 84.252ZM122.09 78.348C122.09 78.852 121.982 79.2 121.766 79.392C121.574 79.56 121.31 79.656 120.974 79.68C120.662 79.68 120.326 79.68 119.966 79.68C119.438 79.68 118.898 79.68 118.346 79.68C117.818 79.656 117.278 79.632 116.726 79.608C117.494 80.208 118.058 80.928 118.418 81.768C118.802 82.608 118.994 83.508 118.994 84.468C118.994 85.644 118.658 86.688 117.986 87.6C117.338 88.488 116.498 89.184 115.466 89.688C114.434 90.192 113.366 90.444 112.262 90.444C111.878 90.444 111.506 90.432 111.146 90.408C110.786 90.36 110.414 90.324 110.03 90.3C109.718 90.588 109.358 90.9 108.95 91.236C108.566 91.572 108.374 91.98 108.374 92.46C108.374 92.844 108.554 93.132 108.914 93.324C109.298 93.492 109.718 93.612 110.174 93.684C110.63 93.756 110.99 93.804 111.254 93.828L115.826 94.152C116.642 94.224 117.434 94.404 118.202 94.692C118.994 94.956 119.654 95.376 120.182 95.952C120.71 96.504 120.974 97.26 120.974 98.22C120.974 99.228 120.674 100.068 120.074 100.74C119.498 101.412 118.742 101.952 117.806 102.36C116.894 102.768 115.946 103.056 114.962 103.224C113.978 103.392 113.09 103.476 112.298 103.476C111.674 103.476 110.894 103.44 109.958 103.368C109.022 103.32 108.098 103.176 107.186 102.936C106.274 102.696 105.506 102.312 104.882 101.784C104.282 101.28 103.982 100.584 103.982 99.696C103.982 99.048 104.138 98.436 104.45 97.86C104.762 97.308 105.146 96.792 105.602 96.312C106.082 95.832 106.55 95.412 107.006 95.052C106.742 94.932 106.382 94.752 105.926 94.512C105.494 94.248 105.278 93.948 105.278 93.612C105.278 93.204 105.494 92.748 105.926 92.244C106.382 91.74 106.874 91.26 107.402 90.804C107.93 90.324 108.338 89.952 108.626 89.688C107.402 89.112 106.49 88.38 105.89 87.492C105.314 86.58 105.026 85.452 105.026 84.108C105.026 82.86 105.374 81.792 106.07 80.904C106.79 79.992 107.69 79.296 108.77 78.816C109.874 78.312 110.99 78.06 112.118 78.06C112.526 78.06 112.934 78.096 113.342 78.168C113.75 78.216 114.146 78.3 114.53 78.42C114.722 78.468 114.926 78.54 115.142 78.636C115.382 78.708 115.598 78.756 115.79 78.78C115.958 78.804 116.114 78.816 116.258 78.816C116.426 78.816 116.594 78.816 116.762 78.816C117.626 78.816 118.454 78.756 119.246 78.636C120.038 78.492 120.746 78.084 121.37 77.412C121.514 77.268 121.634 77.196 121.73 77.196C121.922 77.196 122.03 77.364 122.054 77.7C122.078 78.012 122.09 78.228 122.09 78.348ZM139.397 87.996C139.397 86.964 139.313 85.932 139.145 84.9C139.001 83.844 138.713 82.872 138.281 81.984C137.873 81.096 137.273 80.388 136.481 79.86C135.689 79.308 134.657 79.032 133.385 79.032C132.185 79.032 131.201 79.32 130.433 79.896C129.689 80.472 129.101 81.216 128.669 82.128C128.261 83.04 127.973 84.024 127.805 85.08C127.661 86.136 127.589 87.132 127.589 88.068C127.589 89.1 127.661 90.132 127.805 91.164C127.973 92.196 128.273 93.132 128.705 93.972C129.137 94.788 129.749 95.448 130.541 95.952C131.357 96.456 132.401 96.708 133.673 96.708C134.921 96.708 135.917 96.444 136.661 95.916C137.429 95.388 138.005 94.692 138.389 93.828C138.797 92.964 139.061 92.028 139.181 91.02C139.325 89.988 139.397 88.98 139.397 87.996ZM143.105 88.104C143.105 89.904 142.673 91.524 141.809 92.964C140.969 94.404 139.817 95.544 138.353 96.384C136.913 97.224 135.293 97.644 133.493 97.644C131.741 97.644 130.157 97.224 128.741 96.384C127.325 95.52 126.197 94.38 125.357 92.964C124.517 91.524 124.097 89.928 124.097 88.176C124.097 86.376 124.505 84.72 125.321 83.208C126.137 81.672 127.253 80.436 128.669 79.5C130.109 78.564 131.765 78.096 133.637 78.096C135.653 78.096 137.369 78.528 138.785 79.392C140.201 80.232 141.269 81.408 141.989 82.92C142.733 84.408 143.105 86.136 143.105 88.104Z" fill="black"/>
<path fill-rule="evenodd" clip-rule="evenodd" d="M0 9.5C0 4.25329 4.2533 0 9.5 0H47L44.5 3H9.5C5.91015 3 3 5.91015 3 9.5V44H35L32.5 47H3V97.5H0V9.5ZM17 17.5V36L14 34.5V16L17 17.5Z" fill="black"/>
</svg>
