<svg width="104" height="76" viewBox="0 0 104 76" fill="none" xmlns="http://www.w3.org/2000/svg">
<path d="M23.3543 64.9005C23.3525 65.0221 23.3418 65.1522 23.3222 65.2908C23.3029 65.4121 23.2748 65.5419 23.2378 65.6803C23.1041 66.4424 22.9875 67.2221 22.8881 68.0194C22.8064 68.7997 22.69 69.5707 22.5389 70.3326C22.5375 70.4194 22.5015 70.497 22.4307 70.5654C22.3072 70.6677 22.1583 70.7175 21.984 70.7148C21.1302 70.7018 20.2766 70.6801 19.4231 70.6497C18.5696 70.6193 17.7072 70.5975 16.836 70.5842C15.7732 70.568 14.7103 70.5517 13.6475 70.5355C12.602 70.5196 11.5476 70.5208 10.4842 70.5393C9.89153 70.5477 9.30756 70.5561 8.7323 70.5647C8.15678 70.5906 7.57281 70.5991 6.98039 70.5901C6.77131 70.5869 6.66863 70.4637 6.67237 70.2206C6.6761 69.9776 6.79994 69.8579 7.04387 69.8616C7.21811 69.8643 7.38351 69.8755 7.54006 69.8952C7.7143 69.8979 7.87982 69.9004 8.03664 69.9028C8.28057 69.9065 8.52518 69.8669 8.77045 69.7838C9.03341 69.6836 9.16702 69.4946 9.17129 69.2168L9.40787 53.8248C9.41321 53.4775 9.4089 53.1909 9.39494 52.9649C9.38126 52.7216 9.29694 52.5379 9.14199 52.414C9.00447 52.2903 8.73533 52.2255 8.33458 52.2193C8.16034 52.2167 7.99468 52.2228 7.8376 52.2378C7.68052 52.2528 7.51485 52.2589 7.34061 52.2563C7.20122 52.2541 7.11464 52.2181 7.08086 52.1481C7.04734 52.0608 7.03152 51.9563 7.03339 51.8348C7.03499 51.7306 7.04504 51.6439 7.06353 51.5747C7.09971 51.4885 7.17878 51.4462 7.30075 51.4481C7.87574 51.4569 8.44189 51.4742 8.99919 51.5001C9.57391 51.5262 10.1488 51.5437 10.7238 51.5524C11.3859 51.5626 12.0568 51.5641 12.7366 51.5571C13.4164 51.5501 14.0874 51.5517 14.7495 51.5618C14.8715 51.5636 14.9405 51.6081 14.9566 51.6952C14.9904 51.7652 15.0066 51.8436 15.0052 51.9304C15.0042 51.9998 14.9854 52.0864 14.949 52.19C14.9302 52.2766 14.8598 52.3189 14.7379 52.3171C14.5114 52.3136 14.2849 52.3102 14.0583 52.3067C13.8495 52.2861 13.6319 52.2741 13.4053 52.2707C13.1266 52.2664 12.8472 52.2969 12.5674 52.3621C12.2875 52.4273 12.1448 52.6422 12.1392 53.0068C12.1299 53.6145 12.1118 54.2221 12.0851 54.8295C12.0757 55.4372 12.0664 56.0449 12.057 56.6526L11.9389 64.3356C11.9272 65.0995 11.9153 65.8722 11.9033 66.6535C11.9087 67.4351 11.9056 68.2078 11.8938 68.9718C11.8893 69.267 12.0079 69.4858 12.2497 69.6285C12.4918 69.7537 12.7695 69.8274 13.0829 69.8496C13.3962 69.8717 13.6575 69.8844 13.8665 69.8876C14.6332 69.8993 15.4001 69.8936 16.1673 69.8706C16.9345 69.8476 17.6936 69.781 18.4447 69.6709C18.9339 69.5916 19.3982 69.4337 19.8375 69.1972C20.2946 68.9437 20.6916 68.6285 21.0285 68.2515C21.4718 67.7547 21.8111 67.2215 22.0465 66.652C22.282 66.0651 22.5176 65.4782 22.7532 64.8914C22.8074 64.7706 22.8694 64.7021 22.9394 64.6858C23.0093 64.6695 23.0966 64.6621 23.2011 64.6637C23.2534 64.6645 23.2877 64.6998 23.3041 64.7695C23.3381 64.8221 23.3549 64.8658 23.3543 64.9005Z" fill="black"/>
<path d="M34.484 61.8141C34.4775 61.102 34.4269 60.4239 34.3322 59.7799C34.2378 59.1185 33.9935 58.5764 33.5991 58.1536C33.205 57.7134 32.555 57.4864 31.6489 57.4726C30.83 57.4601 30.1557 57.6756 29.6261 58.119C29.1141 58.5454 28.7135 59.095 28.4243 59.7679C28.1354 60.4234 27.9159 61.0974 27.7658 61.7897C28.2012 61.8138 28.6278 61.8376 29.0457 61.8614C29.4639 61.8678 29.882 61.8741 30.3002 61.8805C30.9972 61.8912 31.6943 61.8931 32.3915 61.8864C33.089 61.8623 33.7865 61.8382 34.484 61.8141ZM37.3979 67.8241C37.3966 67.9109 37.3784 67.9627 37.3433 67.9795C37.2883 68.1524 37.1544 68.3587 36.9416 68.5986C36.7462 68.8388 36.5248 69.0698 36.2774 69.2918C36.0303 69.4965 35.8275 69.6497 35.6691 69.7515C35.0879 70.142 34.4296 70.4533 33.6941 70.6852C32.9759 70.9173 32.2597 71.028 31.5453 71.0171C30.9529 71.008 30.2923 70.9024 29.5634 70.7003C28.8519 70.4984 28.2461 70.2286 27.7459 69.891C26.78 69.2337 26.0786 68.3807 25.6416 67.3321C25.2046 66.2834 24.9947 65.1947 25.0121 64.0662C25.0318 62.7813 25.3027 61.5959 25.8249 60.5097C26.347 59.4236 27.1708 58.5505 28.2963 57.8903C28.8062 57.6029 29.3762 57.3684 30.0064 57.187C30.6368 56.9882 31.2396 56.8932 31.8146 56.902C32.8426 56.9177 33.7454 57.1399 34.5231 57.5686C35.3008 57.9972 35.9015 58.5969 36.3254 59.3675C36.7669 60.121 36.9797 61.0186 36.9637 62.0604C36.9591 62.3555 36.8865 62.5455 36.7458 62.6302C36.6225 62.7151 36.4301 62.7556 36.1688 62.7516C35.8203 62.7463 35.472 62.7323 35.1238 62.7096C34.7755 62.6869 34.4273 62.6642 34.0791 62.6416C33.5918 62.5994 33.1042 62.5746 32.6163 62.5671C32.1459 62.56 31.6667 62.5526 31.1788 62.5452C30.5864 62.5361 29.994 62.5271 29.4016 62.5181C28.8092 62.509 28.2165 62.5173 27.6235 62.543C27.6019 62.8206 27.5803 63.0894 27.5589 63.3496C27.5374 63.6098 27.5246 63.8788 27.5203 64.1566C27.5104 64.799 27.5786 65.4686 27.7247 66.1655C27.8711 66.8451 28.114 67.4827 28.4534 68.0783C28.7931 68.6566 29.2302 69.1322 29.7648 69.505C30.2996 69.8605 30.9503 70.0441 31.7169 70.0558C32.501 70.0678 33.2521 69.9577 33.9702 69.7255C34.6884 69.4933 35.3478 69.1127 35.9484 68.5835C36.1077 68.4296 36.2496 68.2668 36.3742 68.095C36.5166 67.9061 36.6672 67.7435 36.8261 67.607C36.9146 67.5215 37.0111 67.4795 37.1156 67.4811C37.2028 67.4825 37.2719 67.5182 37.3231 67.5885C37.3743 67.6587 37.3993 67.7373 37.3979 67.8241Z" fill="black"/>
<path d="M53.8659 55.884C53.8635 56.0402 53.8005 56.1695 53.677 56.2718C53.5711 56.3571 53.4484 56.3986 53.309 56.3965C53.1348 56.3938 53.0221 56.3574 52.9709 56.2871C52.9199 56.1995 52.8694 56.0858 52.8193 55.9461C52.5375 55.004 52.0951 54.3026 51.4922 53.8419C50.8893 53.3811 50.0826 53.1431 49.072 53.1276L44.3153 53.055L44.1948 60.8943C44.9965 60.8892 45.7982 60.8927 46.5997 60.9049C47.4014 60.8998 48.2036 60.8686 49.0062 60.8114C49.5294 60.7847 50.0444 60.7317 50.551 60.6526C51.0576 60.5735 51.5643 60.4944 52.0709 60.4153L52.1231 60.4161C52.158 60.4167 52.1926 60.4346 52.2269 60.4698C52.2789 60.488 52.3046 60.5144 52.3041 60.5492C52.3022 60.6707 52.2379 60.8868 52.1111 61.1975C51.9846 61.4908 51.8943 61.6978 51.8402 61.8185C51.7499 62.0255 51.6176 62.1277 51.4433 62.1251C51.3214 62.1232 51.1907 62.1212 51.0513 62.1191C50.9296 62.0999 50.7992 62.0805 50.6601 62.061C50.0513 61.9823 49.4333 61.9381 48.806 61.9285C48.1964 61.9018 47.5867 61.8839 46.9769 61.8746C46.7504 61.8711 46.4803 61.867 46.1667 61.8622C45.8531 61.8574 45.539 61.8787 45.2246 61.926C44.9276 61.9735 44.6732 62.0825 44.4614 62.253C44.2674 62.4063 44.1678 62.6479 44.1627 62.9778L44.0723 68.8638C44.0693 69.0547 44.1101 69.2377 44.1945 69.4127C44.2967 69.5705 44.4164 69.72 44.5536 69.861C44.8115 70.0907 45.1317 70.2345 45.5143 70.2925C45.9145 70.3333 46.2801 70.3563 46.6112 70.3613C46.8551 70.365 46.9751 70.4971 46.9711 70.7576C46.9668 71.0354 46.8078 71.1719 46.4942 71.1671C46.2154 71.1628 45.9281 71.1498 45.6321 71.1279C45.3365 71.0886 45.0405 71.0667 44.7443 71.0622C44.3958 71.0569 44.0386 71.0515 43.6727 71.0459C43.3245 71.0232 42.9762 71.0092 42.6277 71.0039C42.0353 70.9948 41.4425 71.0118 40.8493 71.0549C40.2737 71.0808 39.6811 71.0891 39.0712 71.0798C39.0015 71.0788 38.9235 71.0515 38.8372 70.9981C38.7686 70.9276 38.7349 70.8489 38.7363 70.7621C38.7381 70.6406 38.7483 70.5452 38.7668 70.476C38.803 70.3898 38.8909 70.339 39.0306 70.3238C39.1705 70.2912 39.3189 70.2761 39.4757 70.2785C39.6328 70.2635 39.7811 70.2484 39.9208 70.2331C40.5676 70.1041 40.9722 69.8584 41.1346 69.4962C41.3148 69.1169 41.4093 68.6321 41.4184 68.0417L41.6326 54.1082C41.6387 53.7089 41.5033 53.4463 41.2264 53.3205C40.9495 53.1947 40.6194 53.1289 40.236 53.123C39.8701 53.1174 39.5565 53.1127 39.2952 53.1087C38.9641 53.1036 38.8008 52.9535 38.8054 52.6583C38.8075 52.5194 38.8268 52.3982 38.8633 52.2945C38.9171 52.1911 39.0225 52.1407 39.1793 52.143C39.4929 52.1478 39.8064 52.1613 40.1198 52.1834C40.4506 52.2059 40.7728 52.2195 41.0864 52.2243L45.6863 52.2945C46.5575 52.3078 47.4289 52.3124 48.3003 52.3083C49.1895 52.2871 50.0697 52.2832 50.9408 52.2965C51.7424 52.3087 52.5443 52.2949 53.3466 52.2551C53.4257 52.7773 53.5296 53.3867 53.6583 54.0833C53.8044 54.7802 53.8736 55.3804 53.8659 55.884Z" fill="black"/>
<path d="M65.4214 59.8376C65.4187 60.0112 65.3465 60.1751 65.2047 60.3292C65.0806 60.4663 64.9227 60.5333 64.7311 60.5304C64.4697 60.5264 64.2794 60.4367 64.1601 60.2612C64.0582 60.086 63.9654 59.8848 63.8818 59.6578C63.8156 59.431 63.7054 59.2296 63.5512 59.0536C63.3971 58.8776 63.137 58.7868 62.7711 58.7812C62.7015 58.7801 62.6318 58.7791 62.5621 58.778C62.5098 58.7772 62.4487 58.785 62.3787 58.8013C62.0817 58.8488 61.7566 59.0262 61.4033 59.3334C61.05 59.6406 60.7045 60.0087 60.3668 60.4378C60.0467 60.8497 59.779 61.2624 59.5635 61.6759C59.348 62.0894 59.2294 62.4349 59.2077 62.7125C59.186 62.99 59.173 63.2677 59.1687 63.5455C59.1647 63.8059 59.1607 64.0664 59.1567 64.3268C59.1423 65.2644 59.1279 66.202 59.1135 67.1396C59.1165 68.0774 59.1109 69.0064 59.0968 69.9267C59.0928 70.1871 59.1944 70.3797 59.4016 70.5044C59.6265 70.6121 59.8522 70.6676 60.0788 70.6711C60.253 70.6737 60.4274 70.6677 60.6019 70.653C60.7764 70.6383 60.9508 70.6323 61.125 70.6349C61.2121 70.6363 61.2724 70.6806 61.3059 70.7679C61.3397 70.8379 61.3561 70.9076 61.355 70.9771C61.3507 71.2549 61.2092 71.3917 60.9304 71.3874C60.4077 71.3794 59.8851 71.3628 59.3627 71.3374C58.8405 71.2947 58.318 71.2694 57.7953 71.2614C57.2552 71.2532 56.7061 71.2621 56.148 71.2884C55.6073 71.3148 55.0582 71.3238 54.5006 71.3153C54.4309 71.3143 54.3794 71.2614 54.3462 71.1567C54.3304 71.0522 54.323 70.9653 54.3241 70.8958C54.3267 70.7222 54.3979 70.6278 54.5375 70.6125C54.7297 70.5807 54.9303 70.5751 55.1391 70.5957C55.3479 70.6162 55.5394 70.6278 55.7137 70.6305C55.975 70.6345 56.1849 70.5856 56.3433 70.4838C56.5194 70.3649 56.6183 70.1667 56.64 69.8892C56.6834 69.3341 56.7095 68.7701 56.7183 68.1971C56.7445 67.6244 56.7621 67.0516 56.7709 66.4786L56.8097 63.9523C56.8038 63.2055 56.8064 62.4674 56.8176 61.7382C56.8465 60.9919 56.8317 60.2535 56.7732 59.5233C56.7611 59.1757 56.669 58.9312 56.4969 58.7896C56.3251 58.6307 56.0649 58.5486 55.7164 58.5433C55.5771 58.5411 55.4287 58.5562 55.2713 58.5886C55.1317 58.6038 54.9834 58.6102 54.8266 58.6078C54.6872 58.6057 54.6191 58.5005 54.6223 58.2921C54.6242 58.1706 54.6865 58.0847 54.8093 58.0345C54.9843 57.985 55.1678 57.9531 55.3598 57.9387C55.5519 57.9069 55.7353 57.8836 55.9098 57.8689C56.3816 57.7893 56.8534 57.7097 57.3252 57.63C57.7969 57.5504 58.269 57.4534 58.7413 57.339C58.8973 57.3935 59.0091 57.4907 59.0767 57.6307C59.1104 57.7007 59.1336 57.8921 59.1463 58.2049C59.1589 58.5177 59.162 58.8824 59.1556 59.2991C59.1494 59.6985 59.1436 60.0804 59.138 60.4451C59.1326 60.7923 59.1289 61.0354 59.1268 61.1743C59.5194 60.5724 59.9644 59.9714 60.4616 59.3711C60.9588 58.7709 61.5241 58.2759 62.1575 57.8861C62.7909 57.4964 63.4996 57.3075 64.2837 57.3194C64.7019 57.3258 64.9699 57.4601 65.0879 57.7225C65.2059 57.9848 65.2796 58.2898 65.3091 58.6376C65.341 58.8291 65.3641 59.0292 65.3783 59.2378C65.41 59.4467 65.4243 59.6466 65.4214 59.8376Z" fill="black"/>
<path d="M73.7784 71.1667C73.777 71.2535 73.7495 71.3399 73.6959 71.4259C73.6426 71.4946 73.5724 71.5283 73.4853 71.5269C72.9974 71.5195 72.5096 71.5033 72.022 71.4785C71.5521 71.4366 71.0645 71.4118 70.5592 71.4041L69.8536 71.3933C69.3308 71.3854 68.8079 71.3947 68.2846 71.4215C67.7791 71.4311 67.2736 71.4321 66.7683 71.4244C66.6986 71.4233 66.647 71.3791 66.6135 71.2918C66.5974 71.2047 66.5898 71.1351 66.5906 71.083C66.5919 70.9962 66.6016 70.9356 66.6195 70.9011C66.6377 70.8493 66.6906 70.8154 66.7779 70.7993C66.8656 70.766 66.9615 70.7587 67.0658 70.7777C67.1878 70.7796 67.301 70.7813 67.4056 70.7829C67.5276 70.7847 67.6407 70.7952 67.745 70.8141C67.8495 70.8157 67.9628 70.8174 68.0847 70.8193C68.3287 70.823 68.5473 70.7743 68.7405 70.673C68.9515 70.5547 69.0591 70.3566 69.0634 70.0788L69.2235 59.6612C69.228 59.366 69.1792 59.1395 69.0771 58.9816C68.9752 58.8064 68.7587 58.7163 68.4277 58.7112C68.1838 58.7075 67.9308 58.721 67.6689 58.7517C67.4247 58.7654 67.1804 58.7877 66.9359 58.8187C66.7965 58.8166 66.7281 58.7374 66.7305 58.5811C66.7331 58.4075 66.8046 58.2957 66.9447 58.2457C67.1549 58.1795 67.3734 58.1394 67.6001 58.1255C67.8446 58.0945 68.0717 58.0632 68.2813 58.0317C68.7705 57.9523 69.2598 57.8643 69.7493 57.7675C70.2388 57.6708 70.7197 57.5653 71.192 57.4509C71.2445 57.4343 71.3143 57.4267 71.4015 57.4281C71.5931 57.431 71.6874 57.5366 71.6842 57.745C71.6527 59.7938 71.6123 61.8511 71.5631 63.917C71.5314 65.9832 71.4996 68.0493 71.4679 70.1155C71.4636 70.3933 71.5825 70.5948 71.8246 70.7201C72.0843 70.8282 72.3275 70.884 72.554 70.8875C72.7282 70.8902 72.9026 70.8841 73.0771 70.8694C73.269 70.855 73.4521 70.8491 73.6263 70.8518C73.696 70.8528 73.7389 70.8969 73.755 70.984C73.7711 71.0711 73.7789 71.132 73.7784 71.1667ZM71.9384 53.1119C71.9317 53.546 71.7691 53.9169 71.4507 54.2246C71.1325 54.515 70.7557 54.6569 70.3201 54.6502C69.8845 54.6436 69.5121 54.4903 69.203 54.1903C68.8942 53.873 68.7431 53.4973 68.7498 53.0633C68.7564 52.6292 68.9189 52.267 69.237 51.9766C69.5555 51.6689 69.9325 51.5183 70.3681 51.525C70.8037 51.5316 71.1759 51.6936 71.4847 52.0109C71.7938 52.3109 71.945 52.6779 71.9384 53.1119Z" fill="black"/>
<path d="M85.2528 72.5662C85.2635 71.8717 85.0707 71.3738 84.6745 71.0725C84.296 70.7541 83.8286 70.5473 83.2724 70.4519C82.7164 70.3393 82.1775 70.2529 81.6555 70.1928L78.7327 69.8616C78.343 70.2725 78.0491 70.6848 77.851 71.0986C77.6707 71.4953 77.5761 71.9801 77.5673 72.5531C77.5544 73.3865 77.7456 73.9886 78.1408 74.3593C78.5531 74.7477 79.072 74.9987 79.6977 75.1125C80.3234 75.2262 80.9585 75.288 81.6032 75.2978C82.2305 75.3074 82.8155 75.2295 83.3583 75.0641C83.9186 74.899 84.3674 74.6106 84.7049 74.199C85.0595 73.8049 85.2421 73.2607 85.2528 72.5662ZM84.1323 62.129C84.1405 61.5908 84.0884 61.0169 83.9757 60.4073C83.8631 59.7978 83.6272 59.2732 83.268 58.8335C82.9261 58.3941 82.4155 58.1693 81.7359 58.1589C80.9693 58.1472 80.3738 58.3378 79.9495 58.7308C79.5254 59.1064 79.2303 59.5968 79.0642 60.2021C78.9157 60.7903 78.8366 61.4056 78.8267 62.0481C78.8163 62.7252 78.8674 63.3685 78.98 63.9781C79.1103 64.5706 79.3729 65.0608 79.7678 65.4489C80.1801 65.8373 80.7957 66.0377 81.6147 66.0502C82.1199 66.0579 82.5314 65.934 82.849 65.6783C83.1841 65.4229 83.4418 65.0969 83.6222 64.7002C83.8028 64.2862 83.9315 63.854 84.0081 63.4036C84.0847 62.9532 84.1261 62.5284 84.1323 62.129ZM88.8501 57.9288C88.8445 58.2934 88.7622 58.544 88.6033 58.6805C88.462 58.7999 88.2693 58.8664 88.0251 58.8801C87.7986 58.8766 87.5546 58.8729 87.2933 58.8689C86.91 58.8631 86.5179 58.8571 86.1172 58.851C85.7341 58.8277 85.3423 58.8044 84.9418 58.7809C85.4927 59.2235 85.8942 59.7506 86.1462 60.3623C86.4157 60.9743 86.5451 61.6275 86.5344 62.322C86.5213 63.1728 86.2658 63.9243 85.7677 64.5767C85.2874 65.2119 84.6699 65.7061 83.915 66.0593C83.1602 66.4125 82.382 66.5829 81.5805 66.5707C81.3017 66.5664 81.0318 66.5536 80.7707 66.5323C80.5099 66.4936 80.2402 66.4634 79.9617 66.4418C79.732 66.6467 79.4671 66.8684 79.1672 67.107C78.8847 67.3458 78.7408 67.6388 78.7354 67.9861C78.7311 68.2639 78.8586 68.4742 79.1178 68.6171C79.3948 68.7429 79.6983 68.8344 80.0286 68.8915C80.3589 68.9487 80.6197 68.9874 80.8111 69.0077L84.1267 69.2927C84.7184 69.3539 85.2913 69.4928 85.8457 69.7097C86.4178 69.9095 86.8922 70.2206 87.2692 70.6432C87.6464 71.0484 87.8296 71.5982 87.8189 72.2927C87.8077 73.022 87.5806 73.6263 87.1375 74.1059C86.7119 74.5856 86.157 74.9679 85.4729 75.2527C84.8063 75.5378 84.1148 75.7356 83.3986 75.8462C82.6823 75.9569 82.0367 76.0078 81.4617 75.999C81.0087 75.9921 80.4428 75.9574 79.7641 75.895C79.0851 75.8499 78.4159 75.7355 77.7564 75.5517C77.097 75.368 76.5437 75.0817 76.0965 74.6928C75.6666 74.3215 75.4565 73.8147 75.4664 73.1723C75.4736 72.7035 75.5936 72.2625 75.8266 71.8492C76.0592 71.4533 76.3437 71.0843 76.6801 70.7421C77.0339 70.4001 77.3784 70.1015 77.7134 69.8461C77.5231 69.7564 77.2637 69.6222 76.9354 69.4435C76.6247 69.2477 76.4712 69.0283 76.4749 68.7852C76.4795 68.49 76.6413 68.1625 76.9606 67.8027C77.2972 67.4431 77.6598 67.1013 78.0482 66.7773C78.4368 66.4359 78.7372 66.1713 78.9492 65.9835C78.067 65.5532 77.413 65.0136 76.9873 64.3645C76.5792 63.6983 76.3827 62.8791 76.3976 61.9068C76.4115 61.0039 76.676 60.2351 77.1912 59.6004C77.7241 58.9486 78.3852 58.4551 79.1746 58.1198C79.9817 57.7674 80.7947 57.5975 81.6137 57.61C81.9099 57.6145 82.2057 57.6451 82.5011 57.7017C82.7968 57.7409 83.0833 57.8061 83.3608 57.8971C83.4996 57.934 83.6469 57.9883 83.8027 58.0602C83.9761 58.1149 84.1324 58.152 84.2715 58.1715C84.3932 58.1908 84.5063 58.2012 84.6109 58.2028C84.7329 58.2046 84.8548 58.2065 84.9768 58.2084C85.6041 58.2179 86.2058 58.1837 86.7822 58.1057C87.3588 58.0103 87.8773 57.7229 88.3378 57.2437C88.444 57.1411 88.5319 57.0904 88.6016 57.0914C88.741 57.0935 88.8175 57.2163 88.8312 57.4596C88.8451 57.6856 88.8515 57.842 88.8501 57.9288Z" fill="black"/>
<path d="M101.308 65.1004C101.319 64.3538 101.27 63.6063 101.159 62.8578C101.067 62.0923 100.868 61.3859 100.565 60.7387C100.278 60.0917 99.8505 59.5729 99.2813 59.1821C98.7125 58.774 97.9663 58.5629 97.0429 58.5488C96.1717 58.5355 95.4541 58.733 94.8901 59.1412C94.3436 59.5496 93.9084 60.0813 93.5846 60.7363C93.2783 61.3916 93.0583 62.1003 92.9245 62.8624C92.8083 63.6247 92.7449 64.3445 92.7345 65.0216C92.723 65.7682 92.7638 66.5156 92.8569 67.2638C92.9674 68.0123 93.1748 68.6927 93.4791 69.3052C93.7836 69.9003 94.2206 70.3846 94.79 70.758C95.3768 71.1316 96.1319 71.3255 97.0554 71.3396C97.9614 71.3534 98.6875 71.1735 99.2335 70.7997C99.7969 70.4263 100.223 69.9291 100.511 69.3083C100.817 68.6878 101.019 68.0136 101.117 67.2857C101.233 66.5407 101.297 65.8122 101.308 65.1004ZM103.999 65.2196C103.979 66.5218 103.647 67.689 103.004 68.7212C102.378 69.7536 101.529 70.5656 100.457 71.1571C99.4019 71.7488 98.2211 72.0347 96.9143 72.0148C95.6424 71.9953 94.497 71.6739 93.4784 71.0506C92.46 70.4098 91.6537 69.5726 91.0596 68.5389C90.4658 67.4878 90.1786 66.3286 90.1981 65.0611C90.2181 63.7589 90.5328 62.5654 91.142 61.4806C91.7515 60.3784 92.5754 59.4966 93.6139 58.8351C94.6697 58.1739 95.8771 57.8537 97.2362 57.8745C98.6998 57.8968 99.9408 58.2283 100.959 58.8691C101.978 59.4925 102.74 60.3551 103.246 61.4569C103.77 62.5416 104.021 63.7959 103.999 65.2196Z" fill="black"/>
<path fill-rule="evenodd" clip-rule="evenodd" d="M0.978518 6.76828C1.03686 2.97258 4.17204 -0.0573129 7.98113 0.0008228L35.206 0.416338L33.3577 2.55897L7.94777 2.17116C5.34155 2.13138 3.19643 4.20447 3.15651 6.80152L2.77289 31.7604L26.0048 32.1149L24.1565 34.2576L2.73953 33.9307L2.17799 70.4647L0 70.4314L0.978518 6.76828ZM13.2315 12.7442L13.0258 26.1279L10.8645 25.0095L11.0702 11.6258L13.2315 12.7442Z" fill="black"/>
</svg>
